Bullet for my Valentine Live at Brixton 2006. No extras included/documentary's included.
File info:
encoder         : VirtualDubMod 1.5.4.1 (build 2178/release)
IAS1            : English
Duration: 01:06:28.00, start: 0.000000, bitrate: 1472 kb/s

Stream #0:0: Video: mpeg4 (Advanced Simple Profile) (XVID / 0x44495658), yuv
420p, 544x304 [SAR 1:1 DAR 34:19], 25 tbr, 25 tbn, 25 tbc
Stream #0:1: Audio: mp3 (U[0][0][0] / 0x0055), 48000 Hz, stereo, s16, 96 kb/s

Tracklist:
Intro
Her Voice Resides
4 Words (To Choke Upon)
Suffocating Under Words of Sorrow (What Can I Do)
All These Things I Hate (Revolve Around Me)
The Poison
Spit You Out
Cries In Vain
Just Another Star
Tears Don't Fall
No Control
Hand of Blood
The End
